<svg version="1.1" id="Layer_1" xmlns="http://www.w3.org/2000/svg" xmlns:xlink="http://www.w3.org/1999/xlink" x="0px" y="0px"
	 width="100%" viewBox="0 0 461 448" enable-background="new 0 0 461 448" xml:space="preserve">
<path fill="#FFFCFC" opacity="1.000000" stroke="none" 
	d="
M1.000000,172.000000 
	C1.000000,115.079742 1.000000,58.159489 1.000000,1.000000 
	C48.020622,1.000000 95.041656,1.000000 142.535187,1.262910 
	C143.016968,1.700869 143.026215,1.875917 142.852036,2.319704 
	C141.056519,4.043688 139.444443,5.498934 137.630753,7.034855 
	C137.175522,7.286447 137.016296,7.521354 136.826324,8.070236 
	C136.398849,8.528792 136.096512,8.737363 135.600082,9.027515 
	C135.162872,9.277636 135.009476,9.506369 134.790268,10.096211 
	C127.737503,17.457380 120.840302,24.517630 113.579941,31.949629 
	C116.217445,31.949629 118.357544,31.949671 120.497635,31.949623 
	C196.649063,31.947958 272.800537,31.916916 348.951660,32.066738 
	C351.617065,32.071980 354.959625,33.162685 356.838959,34.952492 
	C380.125153,57.129105 403.240967,79.485825 426.235382,101.965210 
	C427.879852,103.572853 429.062439,106.499596 429.066864,108.815666 
	C429.214081,185.799973 429.219452,262.784668 429.065735,339.768951 
	C429.060852,342.229675 427.791168,345.303680 426.060638,347.052216 
	C402.267212,371.093506 378.335846,394.999329 354.258667,418.756348 
	C352.519287,420.472595 349.389313,421.613220 346.903198,421.618042 
	C269.585663,421.767456 192.267715,421.719299 114.949982,421.814667 
	C111.347565,421.819092 108.731506,420.866791 106.128563,418.329895 
	C82.622574,395.420563 59.031868,372.597565 35.341690,349.878876 
	C32.822330,347.462830 31.893656,345.067810 31.899723,341.636963 
	C31.996077,287.148041 31.966463,232.658890 31.965654,178.169800 
	C31.965626,176.220169 31.965651,174.270538 31.965651,172.054184 
	C21.633780,172.054184 11.852084,172.054184 1.803101,172.034546 
	C1.357208,172.009933 1.178604,172.004959 1.000000,172.000000 
M183.500031,354.802399 
	C174.500504,354.800781 165.492020,355.022675 156.506897,354.662231 
	C153.787155,354.553131 150.583984,353.480133 148.533844,351.746796 
	C131.737915,337.546021 115.206673,323.032623 98.473923,308.756165 
	C95.836479,306.505890 94.742020,304.221649 94.752922,300.702606 
	C94.879456,259.870392 94.835014,219.037613 94.835892,178.205002 
	C94.835938,176.253159 94.835899,174.301315 94.835899,172.228638 
	C77.558479,172.228638 60.862999,172.228638 43.898319,172.228638 
	C43.898319,173.784683 43.898319,174.935684 43.898323,176.086685 
	C43.898441,229.919067 43.847752,283.751678 44.058044,337.583221 
	C44.067913,340.110382 45.839951,343.202057 47.739567,345.062714 
	C68.573334,365.469147 89.646500,385.631012 110.507652,406.009766 
	C113.358330,408.794556 116.198853,409.885986 120.164978,409.880005 
	C194.163498,409.768127 268.162323,409.827728 342.160583,409.650696 
	C344.758118,409.644470 347.978729,408.209778 349.849670,406.365997 
	C371.453247,385.076019 392.896240,363.622009 414.218079,342.049591 
	C415.854340,340.394104 417.097443,337.515594 417.102051,335.202728 
	C417.249390,261.371002 417.247589,187.538849 417.095764,113.707130 
	C417.091003,111.404076 415.843353,108.509628 414.193054,106.894043 
	C393.473389,86.609665 372.606964,66.474342 351.644470,46.440708 
	C350.161163,45.023113 347.629822,43.980286 345.583984,43.977158 
	C265.085571,43.854004 184.586945,43.853409 104.088547,43.975975 
	C102.043648,43.979088 99.507484,45.027264 98.033424,46.450676 
	C82.329597,61.615025 66.789940,76.949463 51.226830,92.259186 
	C50.499485,92.974686 49.976475,93.897896 49.001549,95.201347 
	C51.879410,95.201347 54.039864,95.201355 56.200321,95.201347 
	C140.532150,95.200790 224.864014,95.219460 309.195770,95.133331 
	C312.776855,95.129677 315.379120,96.003250 317.966278,98.634613 
	C332.805145,113.727020 347.915131,128.553101 362.717804,143.680252 
	C364.442474,145.442703 365.718018,148.498810 365.726593,150.960297 
	C365.899933,200.792160 365.895660,250.624878 365.737366,300.456818 
	C365.730042,302.770477 364.537262,305.645721 362.917084,307.300354 
	C348.459564,322.065430 333.720306,336.554382 319.225922,351.283966 
	C316.673248,353.878082 314.123535,354.889465 310.497589,354.879120 
	C268.498657,354.759125 226.499283,354.802368 183.500031,354.802399 
M131.499878,133.598602 
	C183.320648,133.599106 235.141510,133.567245 286.961914,133.703506 
	C289.347717,133.709778 292.353027,134.569733 294.009888,136.146103 
	C303.302429,144.987091 312.363525,154.079666 321.256165,163.324417 
	C322.769897,164.898087 323.833160,167.621597 323.842407,169.819199 
	C323.997009,206.643539 323.996246,243.468933 323.835052,280.293243 
	C323.825531,282.476166 322.708984,285.173004 321.190857,286.745819 
	C311.819183,296.454987 302.268127,305.997009 292.552979,315.362549 
	C290.970978,316.887665 288.280243,318.037628 286.096069,318.047485 
	C250.104950,318.210205 214.112671,318.209229 178.121552,318.046051 
	C175.941208,318.036163 173.246872,316.898346 171.675903,315.374054 
	C160.675049,304.700195 149.972214,293.719757 139.012497,283.002563 
	C136.662720,280.704834 135.789032,278.370270 135.798965,275.134155 
	C135.898285,242.808456 135.856903,210.482315 135.855225,178.156311 
	C135.855118,176.208038 135.855209,174.259781 135.855209,172.179474 
	C125.870193,172.179474 116.489830,172.179474 107.036926,172.179474 
	C106.924751,173.181107 106.789162,173.827637 106.788979,174.474197 
	C106.777428,215.298264 106.735184,256.122498 106.905670,296.945831 
	C106.913712,298.871643 108.383522,301.286133 109.912354,302.633789 
	C124.158905,315.192078 138.500412,327.645966 153.009232,339.899414 
	C154.951614,341.539856 157.974457,342.719543 160.501572,342.727966 
	C209.156677,342.889313 257.812622,342.888916 306.467621,342.708679 
	C308.924805,342.699585 311.955017,341.366211 313.735107,339.637146 
	C326.283722,327.448181 338.661926,315.078644 350.848297,302.527679 
	C352.563812,300.760834 353.799011,297.696198 353.808075,295.227020 
	C353.978668,248.738174 353.978271,202.248337 353.794983,155.759567 
	C353.785339,153.307571 352.431976,150.286606 350.700287,148.507782 
	C338.381165,135.853302 325.727234,123.525246 313.361511,110.915176 
	C310.710876,108.212173 308.071747,107.063835 304.245850,107.068504 
	C217.265656,107.174698 130.285217,107.198792 43.305206,107.037292 
	C38.040928,107.027527 34.182873,108.304161 30.701422,112.265785 
	C26.863054,116.633537 22.460991,120.510750 18.248652,124.543327 
	C15.467479,127.205795 12.587831,129.765396 9.752274,132.371063 
	C10.051950,132.780151 10.351626,133.189240 10.651303,133.598328 
	C50.600822,133.598328 90.550346,133.598328 131.499878,133.598602 
z"/>
<path fill="#FFFEFE" opacity="1.000000" stroke="none" 
	d="
M462.000000,350.000000 
	C462.000000,382.927307 462.000000,415.854584 462.000000,449.000000 
	C428.979431,449.000000 395.958374,449.000000 362.429626,448.649323 
	C361.878510,448.067474 361.835052,447.836273 361.951599,447.323334 
	C378.464417,430.689423 394.791534,414.311462 411.177277,397.992401 
	C427.318085,381.917297 443.518341,365.901855 460.075745,349.902435 
	C460.972656,349.963074 461.486328,349.981537 462.000000,350.000000 
z"/>
<path fill="#FFFEFE" opacity="1.000000" stroke="none" 
	d="
M366.000000,1.000000 
	C397.925751,1.000000 429.851532,1.000000 462.000000,1.000000 
	C462.000000,31.687202 462.000000,62.374943 461.679382,93.525276 
	C460.931335,93.982155 460.503906,93.976440 460.047943,93.975983 
	C460.019440,93.981232 460.029816,93.924294 459.930664,93.711273 
	C459.640656,93.232330 459.387207,93.056679 459.039856,92.984726 
	C459.008514,92.998154 459.034821,92.935211 459.025848,92.563774 
	C457.686707,91.123177 456.356537,90.054016 455.012360,88.992523 
	C454.998383,89.000191 455.012085,88.971161 454.909149,88.747551 
	C454.602295,88.244469 454.330414,88.072121 453.995300,88.003441 
	C454.000000,88.000000 453.993286,88.009354 453.895630,87.778976 
	C453.523651,87.370865 453.249390,87.193123 452.987549,87.007538 
	C453.000000,86.999695 452.984680,87.024963 452.890198,86.791351 
	C452.520020,86.378319 452.244354,86.198914 451.984375,86.009575 
	C452.000031,85.999649 451.980560,86.031334 451.886658,85.795944 
	C451.515350,85.380478 451.237946,85.200394 450.980469,85.009781 
	C451.000336,84.999245 450.979889,85.039345 450.884155,84.801819 
	C450.506104,84.386147 450.223724,84.207993 449.969543,84.015984 
	C449.997742,84.002129 449.970459,84.058708 449.878296,83.817398 
	C449.502411,83.395195 449.218689,83.214302 448.965454,83.018631 
	C448.995972,83.003860 448.967133,83.065239 448.872681,82.821198 
	C448.489868,82.395500 448.201538,82.213852 447.607544,81.903305 
	C420.175232,55.230564 393.048584,28.686729 365.948730,1.857670 
	C365.983673,1.381630 365.991852,1.190815 366.000000,1.000000 
z"/>
<path fill="#FFFEFE" opacity="1.000000" stroke="none" 
	d="
M87.000000,449.000000 
	C58.406860,449.000000 29.813719,449.000000 1.000000,449.000000 
	C1.000000,420.979492 1.000000,392.958405 1.340239,364.435364 
	C1.904782,363.893036 2.129087,363.852661 2.641157,363.964844 
	C30.956707,392.089203 58.984493,420.061005 87.007088,448.274597 
	C87.001900,448.516357 87.000000,449.000000 87.000000,449.000000 
z"/>
<path fill="#FFE7EA" opacity="1.000000" stroke="none" 
	d="
M87.468658,449.000000 
	C87.000000,449.000000 87.001900,448.516357 87.472275,448.229370 
	C177.069565,447.941833 266.196472,447.943665 355.323395,447.926788 
	C357.479492,447.926361 359.635529,447.716980 361.791595,447.605072 
	C361.835052,447.836273 361.878510,448.067474 361.960999,448.649323 
	C270.645782,449.000000 179.291550,449.000000 87.468658,449.000000 
z"/>
<path fill="#FFEFF1" opacity="1.000000" stroke="none" 
	d="
M460.076477,93.970726 
	C460.503906,93.976440 460.931335,93.982155 461.679382,93.993935 
	C462.000000,179.020889 462.000000,264.041779 462.000000,349.531342 
	C461.486328,349.981537 460.972656,349.963074 460.263641,349.527496 
	C460.360199,347.191315 460.906403,345.272430 460.907471,343.353180 
	C460.952271,262.158936 460.954437,180.964691 460.914062,99.770439 
	C460.913116,97.837059 460.367859,95.903954 460.076477,93.970726 
z"/>
<path fill="#FEE2E5" opacity="1.000000" stroke="none" 
	d="
M365.531342,1.000000 
	C365.991852,1.190815 365.983673,1.381630 365.485901,1.851612 
	C363.330292,2.111553 361.664307,2.075725 359.998352,2.075491 
	C287.677399,2.065341 215.356430,2.058344 143.035461,2.050965 
	C143.026215,1.875917 143.016968,1.700869 143.003845,1.262910 
	C217.020889,1.000000 291.041779,1.000000 365.531342,1.000000 
z"/>
<path fill="#FFE6E9" opacity="1.000000" stroke="none" 
	d="
M2.353392,363.812317 
	C2.129087,363.852661 1.904782,363.893036 1.340239,363.966736 
	C1.000000,300.312439 1.000000,236.624878 1.000000,172.468658 
	C1.178604,172.004959 1.357208,172.009933 1.802889,172.498672 
	C2.066941,234.934189 2.061645,296.885925 2.073156,358.837646 
	C2.073464,360.495911 2.255893,362.154083 2.353392,363.812317 
z"/>
<path fill="#D02632" opacity="1.000000" stroke="none" 
	d="
M184.000031,354.802368 
	C226.499283,354.802368 268.498657,354.759125 310.497589,354.879120 
	C314.123535,354.889465 316.673248,353.878082 319.225922,351.283966 
	C333.720306,336.554382 348.459564,322.065430 362.917084,307.300354 
	C364.537262,305.645721 365.730042,302.770477 365.737366,300.456818 
	C365.895660,250.624878 365.899933,200.792160 365.726593,150.960297 
	C365.718018,148.498810 364.442474,145.442703 362.717804,143.680252 
	C347.915131,128.553101 332.805145,113.727020 317.966278,98.634613 
	C315.379120,96.003250 312.776855,95.129677 309.195770,95.133331 
	C224.864014,95.219460 140.532150,95.200790 56.200321,95.201347 
	C54.039864,95.201355 51.879410,95.201347 49.001549,95.201347 
	C49.976475,93.897896 50.499485,92.974686 51.226830,92.259186 
	C66.789940,76.949463 82.329597,61.615025 98.033424,46.450676 
	C99.507484,45.027264 102.043648,43.979088 104.088547,43.975975 
	C184.586945,43.853409 265.085571,43.854004 345.583984,43.977158 
	C347.629822,43.980286 350.161163,45.023113 351.644470,46.440708 
	C372.606964,66.474342 393.473389,86.609665 414.193054,106.894043 
	C415.843353,108.509628 417.091003,111.404076 417.095764,113.707130 
	C417.247589,187.538849 417.249390,261.371002 417.102051,335.202728 
	C417.097443,337.515594 415.854340,340.394104 414.218079,342.049591 
	C392.896240,363.622009 371.453247,385.076019 349.849670,406.365997 
	C347.978729,408.209778 344.758118,409.644470 342.160583,409.650696 
	C268.162323,409.827728 194.163498,409.768127 120.164978,409.880005 
	C116.198853,409.885986 113.358330,408.794556 110.507652,406.009766 
	C89.646500,385.631012 68.573334,365.469147 47.739567,345.062714 
	C45.839951,343.202057 44.067913,340.110382 44.058044,337.583221 
	C43.847752,283.751678 43.898441,229.919067 43.898323,176.086685 
	C43.898319,174.935684 43.898319,173.784683 43.898319,172.228638 
	C60.862999,172.228638 77.558479,172.228638 94.835899,172.228638 
	C94.835899,174.301315 94.835938,176.253159 94.835892,178.205002 
	C94.835014,219.037613 94.879456,259.870392 94.752922,300.702606 
	C94.742020,304.221649 95.836479,306.505890 98.473923,308.756165 
	C115.206673,323.032623 131.737915,337.546021 148.533844,351.746796 
	C150.583984,353.480133 153.787155,354.553131 156.506897,354.662231 
	C165.492020,355.022675 174.500504,354.800781 184.000031,354.802368 
z"/>
<path fill="#CE2934" opacity="1.000000" stroke="none" 
	d="
M2.641157,363.964844 
	C2.255893,362.154083 2.073464,360.495911 2.073156,358.837646 
	C2.061645,296.885925 2.066941,234.934189 2.070177,172.518311 
	C11.852084,172.054184 21.633780,172.054184 31.965651,172.054184 
	C31.965651,174.270538 31.965626,176.220169 31.965654,178.169800 
	C31.966463,232.658890 31.996077,287.148041 31.899723,341.636963 
	C31.893656,345.067810 32.822330,347.462830 35.341690,349.878876 
	C59.031868,372.597565 82.622574,395.420563 106.128563,418.329895 
	C108.731506,420.866791 111.347565,421.819092 114.949982,421.814667 
	C192.267715,421.719299 269.585663,421.767456 346.903198,421.618042 
	C349.389313,421.613220 352.519287,420.472595 354.258667,418.756348 
	C378.335846,394.999329 402.267212,371.093506 426.060638,347.052216 
	C427.791168,345.303680 429.060852,342.229675 429.065735,339.768951 
	C429.219452,262.784668 429.214081,185.799973 429.066864,108.815666 
	C429.062439,106.499596 427.879852,103.572853 426.235382,101.965210 
	C403.240967,79.485825 380.125153,57.129105 356.838959,34.952492 
	C354.959625,33.162685 351.617065,32.071980 348.951660,32.066738 
	C272.800537,31.916916 196.649063,31.947958 120.497635,31.949623 
	C118.357544,31.949671 116.217445,31.949629 113.579941,31.949629 
	C120.840302,24.517630 127.737503,17.457380 135.006470,10.044998 
	C135.657745,9.522355 135.796387,9.273377 135.794159,8.945934 
	C136.096512,8.737363 136.398849,8.528792 137.051788,8.022726 
	C137.699295,7.553876 137.842621,7.296859 137.832352,6.954180 
	C139.444443,5.498934 141.056519,4.043688 142.852036,2.319704 
	C215.356430,2.058344 287.677399,2.065341 359.998352,2.075491 
	C361.664307,2.075725 363.330292,2.111553 365.459106,2.136837 
	C393.048584,28.686729 420.175232,55.230564 447.685852,82.159500 
	C448.368896,82.718140 448.668030,82.891685 448.967133,83.065239 
	C448.967133,83.065239 448.995972,83.003860 449.037994,83.274399 
	C449.376831,83.716194 449.673645,83.887451 449.970459,84.058708 
	C449.970459,84.058708 449.997742,84.002129 450.041504,84.270660 
	C450.383484,84.705910 450.681671,84.872627 450.979889,85.039337 
	C450.979889,85.039345 451.000336,84.999245 451.050903,85.262497 
	C451.394470,85.694267 451.687531,85.862801 451.980560,86.031334 
	C451.980560,86.031334 452.000031,85.999649 452.053741,86.261421 
	C452.399872,86.690445 452.692261,86.857704 452.984680,87.024963 
	C452.984680,87.024963 453.000000,86.999695 453.056702,87.259529 
	C453.406677,87.682693 453.699982,87.846024 453.993286,88.009354 
	C453.993286,88.009354 454.000000,88.000000 454.068726,88.249207 
	C454.429016,88.656006 454.720551,88.813583 455.012085,88.971161 
	C455.012085,88.971161 454.998383,89.000191 455.118591,89.294334 
	C456.504120,90.704048 457.769470,91.819626 459.034821,92.935211 
	C459.034821,92.935211 459.008514,92.998154 459.101929,93.225479 
	C459.386627,93.763733 459.664795,93.920898 460.029816,93.924294 
	C460.029816,93.924294 460.019440,93.981232 460.047974,93.975983 
	C460.367859,95.903954 460.913116,97.837059 460.914062,99.770439 
	C460.954437,180.964691 460.952271,262.158936 460.907471,343.353180 
	C460.906403,345.272430 460.360199,347.191315 459.880432,349.485321 
	C443.518341,365.901855 427.318085,381.917297 411.177277,397.992401 
	C394.791534,414.311462 378.464417,430.689423 361.951599,447.323334 
	C359.635529,447.716980 357.479492,447.926361 355.323395,447.926788 
	C266.196472,447.943665 177.069565,447.941833 87.477463,447.987610 
	C58.984493,420.061005 30.956707,392.089203 2.641157,363.964844 
z"/>
<path fill="#CF2A35" opacity="1.000000" stroke="none" 
	d="
M130.999878,133.598465 
	C90.550346,133.598328 50.600822,133.598328 10.651303,133.598328 
	C10.351626,133.189240 10.051950,132.780151 9.752274,132.371063 
	C12.587831,129.765396 15.467479,127.205795 18.248652,124.543327 
	C22.460991,120.510750 26.863054,116.633537 30.701422,112.265785 
	C34.182873,108.304161 38.040928,107.027527 43.305206,107.037292 
	C130.285217,107.198792 217.265656,107.174698 304.245850,107.068504 
	C308.071747,107.063835 310.710876,108.212173 313.361511,110.915176 
	C325.727234,123.525246 338.381165,135.853302 350.700287,148.507782 
	C352.431976,150.286606 353.785339,153.307571 353.794983,155.759567 
	C353.978271,202.248337 353.978668,248.738174 353.808075,295.227020 
	C353.799011,297.696198 352.563812,300.760834 350.848297,302.527679 
	C338.661926,315.078644 326.283722,327.448181 313.735107,339.637146 
	C311.955017,341.366211 308.924805,342.699585 306.467621,342.708679 
	C257.812622,342.888916 209.156677,342.889313 160.501572,342.727966 
	C157.974457,342.719543 154.951614,341.539856 153.009232,339.899414 
	C138.500412,327.645966 124.158905,315.192078 109.912354,302.633789 
	C108.383522,301.286133 106.913712,298.871643 106.905670,296.945831 
	C106.735184,256.122498 106.777428,215.298264 106.788979,174.474197 
	C106.789162,173.827637 106.924751,173.181107 107.036926,172.179474 
	C116.489830,172.179474 125.870193,172.179474 135.855209,172.179474 
	C135.855209,174.259781 135.855118,176.208038 135.855225,178.156311 
	C135.856903,210.482315 135.898285,242.808456 135.798965,275.134155 
	C135.789032,278.370270 136.662720,280.704834 139.012497,283.002563 
	C149.972214,293.719757 160.675049,304.700195 171.675903,315.374054 
	C173.246872,316.898346 175.941208,318.036163 178.121552,318.046051 
	C214.112671,318.209229 250.104950,318.210205 286.096069,318.047485 
	C288.280243,318.037628 290.970978,316.887665 292.552979,315.362549 
	C302.268127,305.997009 311.819183,296.454987 321.190857,286.745819 
	C322.708984,285.173004 323.825531,282.476166 323.835052,280.293243 
	C323.996246,243.468933 323.997009,206.643539 323.842407,169.819199 
	C323.833160,167.621597 322.769897,164.898087 321.256165,163.324417 
	C312.363525,154.079666 303.302429,144.987091 294.009888,136.146103 
	C292.353027,134.569733 289.347717,133.709778 286.961914,133.703506 
	C235.141510,133.567245 183.320648,133.599106 130.999878,133.598465 
z"/>
<path fill="#FEE2E5" opacity="1.000000" stroke="none" 
	d="
M135.600082,9.027515 
	C135.796387,9.273377 135.657745,9.522355 135.162033,9.744081 
	C135.009476,9.506369 135.162872,9.277636 135.600082,9.027515 
z"/>
<path fill="#FEE2E5" opacity="1.000000" stroke="none" 
	d="
M137.630753,7.034854 
	C137.842621,7.296859 137.699295,7.553876 137.176910,7.772740 
	C137.016296,7.521354 137.175522,7.286447 137.630753,7.034854 
z"/>
<path fill="#FFEFF1" opacity="1.000000" stroke="none" 
	d="
M459.025848,92.563766 
	C457.769470,91.819626 456.504120,90.704048 455.132568,89.286667 
	C456.356537,90.054016 457.686707,91.123177 459.025848,92.563766 
z"/>
<path fill="#FFEFF1" opacity="1.000000" stroke="none" 
	d="
M449.878296,83.817398 
	C449.673645,83.887451 449.376831,83.716194 449.007477,83.289177 
	C449.218689,83.214302 449.502411,83.395195 449.878296,83.817398 
z"/>
<path fill="#FFEFF1" opacity="1.000000" stroke="none" 
	d="
M450.884155,84.801819 
	C450.681671,84.872627 450.383484,84.705910 450.013306,84.284515 
	C450.223724,84.207993 450.506104,84.386147 450.884155,84.801819 
z"/>
<path fill="#FFEFF1" opacity="1.000000" stroke="none" 
	d="
M451.886658,85.795944 
	C451.687531,85.862801 451.394470,85.694267 451.031006,85.273026 
	C451.237946,85.200394 451.515350,85.380478 451.886658,85.795944 
z"/>
<path fill="#FFEFF1" opacity="1.000000" stroke="none" 
	d="
M452.890198,86.791351 
	C452.692261,86.857704 452.399872,86.690445 452.038086,86.271347 
	C452.244354,86.198914 452.520020,86.378319 452.890198,86.791351 
z"/>
<path fill="#FFEFF1" opacity="1.000000" stroke="none" 
	d="
M453.895630,87.778976 
	C453.699982,87.846024 453.406677,87.682693 453.044250,87.267372 
	C453.249390,87.193123 453.523651,87.370865 453.895630,87.778976 
z"/>
<path fill="#FFEFF1" opacity="1.000000" stroke="none" 
	d="
M454.909149,88.747551 
	C454.720551,88.813583 454.429016,88.656006 454.064056,88.252655 
	C454.330414,88.072121 454.602295,88.244469 454.909149,88.747551 
z"/>
<path fill="#FFEFF1" opacity="1.000000" stroke="none" 
	d="
M459.930664,93.711273 
	C459.664795,93.920898 459.386627,93.763733 459.133301,93.212044 
	C459.387207,93.056679 459.640656,93.232330 459.930664,93.711273 
z"/>
<path fill="#FFEFF1" opacity="1.000000" stroke="none" 
	d="
M448.872681,82.821198 
	C448.668030,82.891685 448.368896,82.718140 447.991486,82.288399 
	C448.201538,82.213852 448.489868,82.395500 448.872681,82.821198 
z"/>
</svg>